<?xml version="1.0" encoding="utf-8"?>
<!-- Generator: Adobe Illustrator 24.3.0, SVG Export Plug-In . SVG Version: 6.00 Build 0)  -->
<svg version="1.1" id="Layer_1" xmlns="http://www.w3.org/2000/svg" xmlns:xlink="http://www.w3.org/1999/xlink" x="0px" y="0px"
	 viewBox="0 0 400 400" style="enable-background:new 0 0 400 400;" xml:space="preserve">
<style type="text/css">
	.st0{fill:#8A1E41;}
	.st1{fill:#FFFFFF;stroke:#8A1E41;stroke-width:36.611;stroke-linecap:round;stroke-linejoin:round;stroke-miterlimit:10;}
</style>
<g>
	<path class="st0" d="M322,47.3c17.3,0,31.4,14.1,31.4,31.4v245c0,17.3-14.1,31.4-31.4,31.4H77c-17.3,0-31.4-14.1-31.4-31.4v-245
		c0-17.3,14.1-31.4,31.4-31.4H322 M322,11.3H77c-37.2,0-67.4,30.2-67.4,67.4v245c0,37.2,30.2,67.4,67.4,67.4h245
		c37.2,0,67.4-30.2,67.4-67.4v-245C389.4,41.5,359.2,11.3,322,11.3L322,11.3z"/>
</g>
<g>
	<polyline class="st1" points="370.8,301.8 198.9,135.6 32.9,296.1 	"/>
	<polyline class="st1" points="29.2,92.2 201.1,258.4 367.1,97.9 	"/>
</g>
</svg>
