<?xml version="1.0" encoding="utf-8"?>
<!-- Generator: Adobe Illustrator 24.3.0, SVG Export Plug-In . SVG Version: 6.00 Build 0)  -->
<svg version="1.1" id="Layer_1" xmlns="http://www.w3.org/2000/svg" xmlns:xlink="http://www.w3.org/1999/xlink" x="0px" y="0px"
	 viewBox="0 0 400 400" style="enable-background:new 0 0 400 400;" xml:space="preserve">
<style type="text/css">
	.st0{fill:#8A1E41;}
</style>
<path class="st0" d="M202,13.2c-105.5,0-190.4,85-190.4,190.4c0,85,55.7,155.3,128.9,181.6c8.8,2.9,17.6-8.8,17.6-14.6
	c0-5.9,0-8.8,0-26.4C105.3,353,87.7,315,87.7,315c-8.8-23.4-20.5-29.3-20.5-29.3c-17.6-11.7,0-11.7,0-11.7
	c20.5,0,29.3,17.6,29.3,17.6c14.6,26.4,46.9,23.4,58.6,17.6c0-11.7,0-20.5,5.9-26.4C102.4,271,67.2,238.8,67.2,189
	c0-29.3,8.8-49.8,26.4-67.4c-5.9-2.9-8.8-32.2,5.9-49.8c35.2,0,55.7,26.4,55.7,26.4s17.6-8.8,46.9-8.8s46.9,5.9,46.9,5.9
	s20.5-26.4,55.7-26.4c14.6,17.6,8.8,46.9,2.9,55.7c14.6,14.6,23.4,38.1,23.4,67.4c0,46.9-32.2,82-90.8,93.7
	c2.9,5.9,2.9,14.6,2.9,26.4c0,26.4,0,49.8,0,55.7c0,5.9,5.9,17.6,17.6,14.6c76.2-26.4,128.9-96.7,128.9-181.6
	C392.4,98.2,307.4,13.2,202,13.2z"/>
</svg>
