<?xml version="1.0" encoding="utf-8"?>
<!-- Generator: Adobe Illustrator 24.3.0, SVG Export Plug-In . SVG Version: 6.00 Build 0)  -->
<svg version="1.1" id="Layer_1" xmlns="http://www.w3.org/2000/svg" xmlns:xlink="http://www.w3.org/1999/xlink" x="0px" y="0px"
	 viewBox="0 0 400 400" style="enable-background:new 0 0 400 400;" xml:space="preserve">
<style type="text/css">
	.st0{fill:#8A1E41;}
</style>
<g>
	<path class="st0" d="M199.6,102.7c-54.2,0-97.1,42.8-97.1,97.1s44.2,97.1,97.1,97.1s97.1-44.2,97.1-97.1S252.4,102.7,199.6,102.7
		L199.6,102.7z M199.6,262.6c-34.3,0-62.8-28.5-62.8-62.8s28.5-62.8,62.8-62.8s62.8,28.5,62.8,62.8S233.8,262.6,199.6,262.6
		L199.6,262.6z"/>
	<circle class="st0" cx="300.9" cy="98.4" r="22.8"/>
	<path class="st0" d="M379.4,75.6c-10-25.7-30-45.7-55.7-55.7c-14.3-5.7-30-8.6-45.7-8.6c-20-1.4-27.1-1.4-78.5-1.4
		s-58.5,0-78.5,1.4c-15.7,0-31.4,2.9-45.7,8.6c-25.7,10-45.7,30-55.7,55.7c-5.7,14.3-8.6,30-8.6,45.7c-1.4,20-1.4,27.1-1.4,78.5
		s0,58.5,1.4,78.5c0,15.7,2.9,31.4,8.6,45.7c10,25.7,30,45.7,55.7,55.7c14.3,5.7,30,8.6,45.7,10c20,1.4,27.1,1.4,78.5,1.4
		s58.5,0,78.5-1.4c15.7,0,31.4-2.9,45.7-8.6c25.7-10,45.7-30,55.7-55.7c5.7-14.3,8.6-30,8.6-45.7c1.4-20,1.4-27.1,1.4-78.5
		s0-58.5-1.4-78.5C388,105.6,383.7,89.9,379.4,75.6z M353.7,275.4c0,11.4-2.9,24.3-7.1,35.7c-5.7,17.1-20,30-35.7,35.7
		c-11.4,4.3-22.8,5.7-35.7,7.1c-20,1.4-25.7,1.4-77.1,1.4s-57.1,0-77.1-1.4c-11.4,0-24.3-2.9-35.7-7.1c-17.1-5.7-30-20-35.7-35.7
		c-4.3-11.4-5.7-22.8-7.1-35.7c-1.4-20-1.4-25.7-1.4-77.1s0-57.1,1.4-77.1c0-11.4,2.9-24.3,7.1-35.7c5.7-17.1,20-30,35.7-35.7
		c11.4-4.3,22.8-5.7,35.7-7.1c20-1.4,25.7-1.4,77.1-1.4s57.1,0,77.1,1.4c11.4,0,24.3,2.9,35.7,7.1c17.1,5.7,30,20,35.7,35.7
		c4.3,11.4,5.7,22.8,7.1,35.7c1.4,20,1.4,25.7,1.4,77.1S353.7,255.4,353.7,275.4L353.7,275.4z"/>
</g>
</svg>
