<?xml version="1.0" encoding="utf-8"?>
<!-- Generator: Adobe Illustrator 24.3.0, SVG Export Plug-In . SVG Version: 6.00 Build 0)  -->
<svg version="1.1" id="Layer_1" xmlns="http://www.w3.org/2000/svg" xmlns:xlink="http://www.w3.org/1999/xlink" x="0px" y="0px"
	 viewBox="0 0 400 400" style="enable-background:new 0 0 400 400;" xml:space="preserve">
<style type="text/css">
	.st0{fill:#8A1E41;}
	.st1{fill:#FFFFFF;}
</style>
<g>
	<path class="st0" d="M10,40.8c0-14.7,12.6-26.6,28.1-26.6h323.8c15.5,0,28.1,11.9,28.1,26.6v318.5c0,14.7-12.6,26.6-28.1,26.6H38.1
		C22.6,385.9,10,374,10,359.2V40.8L10,40.8z"/>
	<path class="st1" d="M125.5,325.2V157.9H68.6v167.4H125.5L125.5,325.2z M97.1,135c19.8,0,32.2-12.9,32.2-28.9
		c-0.4-16.4-12.3-28.9-31.8-28.9c-19.5,0-32.2,12.5-32.2,28.9c0,16.1,12.3,28.9,31.4,28.9H97.1L97.1,135z M157,325.2h56.9v-93.5
		c0-5,0.4-10,1.9-13.6c4.1-10,13.5-20.3,29.2-20.3c20.6,0,28.8,15.3,28.8,37.8v89.5h56.9v-95.9c0-51.4-28-75.3-65.5-75.3
		c-30.7,0-44.1,16.8-51.6,28.2h0.4v-24.3H157C157.7,173.6,157,325.2,157,325.2L157,325.2z"/>
</g>
</svg>
