<?xml version="1.0" encoding="utf-8"?>
<!-- Generator: Adobe Illustrator 24.3.0, SVG Export Plug-In . SVG Version: 6.00 Build 0)  -->
<svg version="1.1" id="Layer_1" xmlns="http://www.w3.org/2000/svg" xmlns:xlink="http://www.w3.org/1999/xlink" x="0px" y="0px"
	 viewBox="0 0 779 356" style="enable-background:new 0 0 779 356;" xml:space="preserve">
<style type="text/css">
	.st0{clip-path:url(#SVGID_2_);fill:#8A1E41;}
	.st1{fill:#FFFFFF;}
</style>
<g>
	<g>
		<defs>
			<rect id="SVGID_1_" x="8.2" y="28.9" width="762.6" height="298.1"/>
		</defs>
		<clipPath id="SVGID_2_">
			<use xlink:href="#SVGID_1_"  style="overflow:visible;"/>
		</clipPath>
		<path class="st0" d="M8.2,29.3V284h212v42.7h169.3V284h381.3V29.3H8.2z M8.2,29.3"/>
	</g>
	<path class="st1" d="M134.8,72H50.9v169.3h83.9V114.7h42.7v126.6h42.7V72H134.8z M262.9,72v212h85.4v-42.7h83.9V72H262.9z
		 M389.5,198.6h-41.2v-83.9h41.2V198.6z M558.8,72h-83.9v169.3h83.9V114.7h42.7v126.6h42.7V114.7h42.7v126.6h42.7V72H558.8z
		 M558.8,72"/>
</g>
</svg>
