<?xml version="1.0" encoding="utf-8"?>
<!-- Generator: Adobe Illustrator 24.3.0, SVG Export Plug-In . SVG Version: 6.00 Build 0)  -->
<svg version="1.1" id="Layer_1" xmlns="http://www.w3.org/2000/svg" xmlns:xlink="http://www.w3.org/1999/xlink" x="0px" y="0px"
	 viewBox="0 0 400 400" style="enable-background:new 0 0 400 400;" xml:space="preserve">
<style type="text/css">
	.st0{fill:#8A1E41;}
	.st1{fill:#FFFFFF;}
</style>
<g id="Dark_Blue">
	<circle class="st0" cx="200" cy="200" r="189"/>
</g>
<g id="Logo__x2014__FIXED">
	<path class="st1" d="M165.4,299.7c83.8,0,129.7-69.5,129.7-129.7c0-2,0-4-0.1-5.9c8.9-6.4,16.6-14.5,22.8-23.6
		c-8.1,3.6-16.9,6-26.2,7.2c9.5-5.7,16.6-14.6,20-25.2c-8.8,5.2-18.5,9-28.9,11.1c-8.3-8.9-20.1-14.4-33.3-14.4
		c-25.1,0-45.5,20.4-45.5,45.5c0,3.6,0.4,7.1,1.2,10.4c-37.9-1.9-71.4-20-93.9-47.6c-3.9,6.7-6.1,14.6-6.1,22.9
		c0,15.8,8,29.8,20.3,37.9c-7.5-0.2-14.5-2.3-20.6-5.7c0,0.2,0,0.4,0,0.6c0,22.1,15.7,40.4,36.6,44.7c-3.8,1-7.8,1.6-12,1.6
		c-2.9,0-5.8-0.3-8.6-0.9c5.8,18.1,22.6,31.3,42.5,31.7c-15.6,12.2-35.2,19.5-56.6,19.5c-3.7,0-7.3-0.2-10.9-0.7
		C115.7,292.1,139.7,299.7,165.4,299.7"/>
</g>
</svg>
